<svg width="100" height="41" viewBox="0 0 100 41" fill="none" xmlns="http://www.w3.org/2000/svg">
<path fill-rule="evenodd" clip-rule="evenodd" d="M41.4185 19.2833L29.9212 19.637L40.838 20.1613L41.4185 19.2833ZM40.0432 21.3708L28.5187 21.7251L39.4761 22.2511L40.0432 21.3708ZM38.6679 23.476L27.1578 23.8251L38.1019 24.3507L38.6679 23.476ZM37.3209 25.5704L25.7964 25.9251L36.7276 26.4498L37.3209 25.5704ZM51.409 8.74615L36.7346 9.19738L51.4507 9.90401L51.409 8.74615ZM51.316 6.67429L38.1334 7.07379L51.3576 7.72916L51.316 6.67429ZM51.2219 4.67586L39.4766 5.00978L51.2785 5.57601L51.2219 4.67586ZM51.1428 2.62433L40.8476 2.92176L51.1834 3.44919L51.1428 2.62433ZM51.076 0.96582H42.1219L51.0893 1.37687L51.076 0.96582ZM35.9323 27.664L24.4356 28.0238H35.6976L35.9323 27.664Z" fill="white"/>
<path fill-rule="evenodd" clip-rule="evenodd" d="M74.8947 1.0328H58.326L57.8562 1.75144L66.1475 2.13154C66.2448 2.13154 66.2448 2.2507 66.1058 2.2507L57.373 2.50287L56.5306 3.77665L64.7652 4.19693C64.8759 4.20894 64.8486 4.34011 64.7519 4.34011L56.0047 4.58858L55.1906 5.80833L63.4119 6.20275C63.5915 6.21476 63.5915 6.34639 63.4119 6.34639L54.6791 6.61103L53.8501 7.88666L62.0441 8.29263C62.2237 8.30463 62.2103 8.44781 62.0441 8.44781L53.3113 8.7166L52.4678 9.97653L60.6752 10.3705C60.7992 10.3825 60.8142 10.5141 60.6479 10.5141L35.4849 11.2425L59.363 12.3888C59.5142 12.3888 59.5009 12.556 59.3346 12.556L34.131 13.3323L58.0091 14.4782C58.1197 14.4782 58.147 14.6334 57.9807 14.6334L32.7354 15.4213L56.6135 16.5676C56.7107 16.5796 56.8064 16.7348 56.6001 16.7468L31.3949 17.5218L55.2724 18.6676C55.3413 18.6796 55.4103 18.8348 55.2451 18.8348L42.5597 19.2255L42.6013 20.2148L53.9046 20.7575C53.9869 20.7695 54.0286 20.9127 53.8763 20.9127L42.643 21.2577L42.6981 22.3643L52.5095 22.8354C52.6057 22.8474 52.6474 23.0146 52.4812 23.0146L42.7531 23.3097L42.7954 24.5239L51.1556 24.9252C51.2518 24.9368 51.2796 25.092 51.1139 25.092L42.8371 25.3474L42.8921 26.6831L49.8012 27.0147C49.8984 27.0267 49.8984 27.1703 49.76 27.1703L42.9199 27.3841L42.9477 27.9582H65.2506C71.1644 27.9582 76.4699 24.2329 77.4651 21.2715C78.4609 18.3106 78.4609 15.636 73.707 14.299C76.3609 13.7734 80.9753 11.1875 81.8877 7.61232C82.7151 4.36412 81.3339 1.04481 74.8947 1.0328ZM63.6764 21.7699H56.823L60.6918 15.8476H65.7771C71.0281 15.8476 68.4849 21.7699 63.6764 21.7699ZM72.5471 9.06484C72.3259 9.78117 70.6667 11.5962 68.5677 11.5962H63.4824L66.7429 6.6295H69.3412C72.6567 6.7251 72.7674 8.34897 72.5471 9.06484ZM100 36.5399C100 34.2449 97.792 32.3227 95.136 32.3227C92.4111 32.3227 90.1864 34.2754 90.1864 36.6743C90.1837 37.2385 90.3103 37.7977 90.5589 38.3195C90.8076 38.8413 91.1734 39.3153 91.6352 39.7143C92.097 40.1133 92.6457 40.4293 93.2495 40.6441C93.8534 40.8589 94.5006 40.9682 95.1536 40.9658C97.1703 40.9658 99.0849 39.7737 99.6542 38.1494H97.1361C96.6358 38.8348 95.9816 39.1475 95.0836 39.1475C93.9456 39.1475 92.929 38.4769 92.6008 37.5231H99.8781C99.9653 37.0618 100 36.8378 100 36.5399ZM92.5324 35.9653C92.86 34.8476 93.8948 34.1322 95.1707 34.1322C96.4477 34.1322 97.4477 34.8329 97.7577 35.9653H92.5324ZM67.3063 32.7204V33.3896C66.5826 32.719 65.5339 32.3375 64.4125 32.3375C61.9291 32.3375 59.812 34.1701 59.812 36.5546C59.812 38.8043 61.6849 40.8221 64.4616 40.8221C65.6862 40.8221 66.6173 40.5778 67.4966 39.7137V40.7718H69.6015V32.7204H67.3063ZM64.7358 39.1156C63.9689 39.1156 63.2333 38.8523 62.6909 38.3837C62.1486 37.9151 61.8439 37.2795 61.8439 36.6168C61.8439 35.954 62.1486 35.3184 62.6909 34.8498C63.2333 34.3812 63.9689 34.1179 64.7358 34.1179C65.5028 34.1179 66.2384 34.3812 66.7808 34.8498C67.3231 35.3184 67.6278 35.954 67.6278 36.6168C67.6278 37.2795 67.3231 37.9151 66.7808 38.3837C66.2384 38.8523 65.5028 39.1156 64.7358 39.1156ZM4.58768 32.3222C3.63946 32.3222 2.91521 32.6054 2.12146 33.306V32.5162H0V40.7718H2.29411V36.8821C2.29411 35.8245 2.39727 34.1401 4.08738 34.1401C5.6738 34.1401 5.84645 35.7196 5.84645 36.7329V40.7713H8.14002V36.3454C8.14002 35.1829 8.03686 34.632 7.67446 33.9761C7.13996 32.9928 5.88119 32.3222 4.58768 32.3222ZM18.8398 36.5399C18.8398 34.2449 16.6323 32.3227 13.9763 32.3227C11.2514 32.3227 9.02677 34.2754 9.02677 36.6743C9.02408 37.2385 9.15071 37.7976 9.39936 38.3193C9.648 38.841 10.0137 39.315 10.4755 39.714C10.9372 40.113 11.4858 40.429 12.0896 40.6438C12.6934 40.8587 13.3404 40.9681 13.9934 40.9658C16.0112 40.9658 17.9253 39.7737 18.4945 38.1494H15.977C15.4767 38.8348 14.8214 39.1475 13.9245 39.1475C12.7865 39.1475 11.7688 38.4769 11.4411 37.5231H18.7185C18.8056 37.0618 18.8398 36.8378 18.8398 36.5399ZM11.3727 35.9653C11.7004 34.8476 12.7352 34.1322 14.0116 34.1322C15.288 34.1322 16.2881 34.8329 16.5986 35.9653H11.3727ZM56.5787 40.7649H58.8723V29.7525H56.5787V40.7649ZM75.6526 32.3222C74.7039 32.3222 73.9791 32.6054 73.1859 33.306V32.5162H71.0644V40.7718H73.3591V36.8821C73.3591 35.8245 73.4622 34.1401 75.1523 34.1401C76.7382 34.1401 76.9114 35.7196 76.9114 36.7329V40.7713H79.205V36.3454C79.205 35.1829 79.1018 34.632 78.7394 33.9761C78.2049 32.9928 76.9461 32.3222 75.6526 32.3222ZM84.9306 34.1405C85.982 34.1405 86.5855 34.4389 87.1552 35.273H89.7412C89.0346 33.5 87.2242 32.3222 85.0161 32.3222C82.2223 32.3222 79.98 34.2445 79.98 36.6142C79.98 38.9983 82.2394 40.9653 85.0161 40.9653C85.7244 40.9621 86.4241 40.832 87.0712 40.5832C87.7182 40.3343 88.2985 39.9722 88.7753 39.5197C89.2585 39.0579 89.4312 38.7895 89.7412 38.0598H87.1552C86.6197 38.7748 85.9307 39.147 85.0685 39.147C83.4639 39.147 82.2746 38.0741 82.2746 36.6433C82.2746 35.1986 83.4126 34.1405 84.9306 34.1405ZM27.6068 37.5532L25.9824 32.5167H24.1368L22.4948 37.5532L20.5529 32.5167H18.5292L21.7192 40.7718H23.1886L25.0513 35.4226L26.8617 40.7718H28.4037L31.4627 32.5167H29.5663L27.6068 37.5532ZM39.8957 32.331C38.7748 32.331 37.7261 32.7125 37.0018 33.3827V29.753H34.7077V40.7649H36.8116V39.7072C37.6914 40.5714 38.6225 40.8152 39.847 40.8152C42.6238 40.8152 44.4967 38.7978 44.4967 36.5477C44.4972 34.1636 42.3795 32.331 39.8957 32.331ZM39.5723 39.1156C38.8053 39.1156 38.0697 38.8523 37.5274 38.3837C36.985 37.9151 36.6803 37.2795 36.6803 36.6168C36.6803 35.954 36.985 35.3184 37.5274 34.8498C38.0697 34.3812 38.8053 34.1179 39.5723 34.1179C40.3393 34.1179 41.0749 34.3812 41.6172 34.8498C42.1596 35.3184 42.4642 35.954 42.4642 36.6168C42.4642 37.2795 42.1596 37.9151 41.6172 38.3837C41.0749 38.8523 40.3393 39.1156 39.5723 39.1156ZM52.7522 32.7204V33.3896C52.0279 32.719 50.9798 32.3375 49.8584 32.3375C47.375 32.3375 45.2568 34.1701 45.2568 36.5546C45.2568 38.8043 47.1302 40.8221 49.9065 40.8221C51.131 40.8221 52.0621 40.5778 52.9419 39.7137V40.7718H55.0458V32.7204H52.7522ZM50.1823 39.1156C49.4153 39.1156 48.6797 38.8523 48.1373 38.3837C47.595 37.9151 47.2903 37.2795 47.2903 36.6168C47.2903 35.954 47.595 35.3184 48.1373 34.8498C48.6797 34.3812 49.4153 34.1179 50.1823 34.1179C50.9493 34.1179 51.6848 34.3812 52.2272 34.8498C52.7695 35.3184 53.0742 35.954 53.0742 36.6168C53.0742 37.2795 52.7695 37.9151 52.2272 38.3837C51.6848 38.8523 50.9493 39.1156 50.1823 39.1156Z" fill="white"/>
</svg>
